HIERARCHY
ROOT root
{
	OFFSET	0	13.1	24.9
	CHANNELS 6  Xposition Yposition Zposition Xrotation Yrotation Zrotation
	JOINT spine_1
	{
		OFFSET	0	9.99999	0
		CHANNELS 3  Xrotation Yrotation Zrotation
		JOINT spine_2
		{
			OFFSET	0	112	-10
			CHANNELS 3  Xrotation Yrotation Zrotation
			JOINT spine_3
			{
				OFFSET	0	206.5	19.3
				CHANNELS 3  Xrotation Yrotation Zrotation
				JOINT spine_4
				{
					OFFSET	0	110.4	14.6
					CHANNELS 3  Xrotation Yrotation Zrotation
					JOINT neck_1
					{
						OFFSET	0	71.8	-50.3
						CHANNELS 3  Xrotation Yrotation Zrotation
						JOINT neck_2
						{
							OFFSET	0	86.2	-25.8
							CHANNELS 3  Xrotation Yrotation Zrotation
							JOINT head_ee
							{
								OFFSET	0	179.8	-8.7
								CHANNELS 3  Xrotation Yrotation Zrotation
								End Site
								{
									OFFSET	1	0	0
								}
							}
						}
					}
					JOINT left_clavicle
					{
						OFFSET	-43.2	22.4	-70.8
						CHANNELS 3  Xrotation Yrotation Zrotation
						JOINT left_shoulder
						{
							OFFSET	-93.9	-5.79999	48.7
							CHANNELS 3  Xrotation Yrotation Zrotation
							JOINT left_elbow
							{
								OFFSET	-291.4	-30.8	15.2
								CHANNELS 3  Xrotation Yrotation Zrotation
								JOINT left_lowarm_twist
								{
									OFFSET	-110.7	-3.89999	13.6
									CHANNELS 3  Xrotation Yrotation Zrotation
									JOINT left_hand
									{
										OFFSET	-110.7	-3.89999	13.6
										CHANNELS 3  Xrotation Yrotation Zrotation
										JOINT left_ee
										{
											OFFSET	-80.8	-5.10001	12.1
											CHANNELS 3  Xrotation Yrotation Zrotation
											End Site
											{
												OFFSET	1	0	0
											}
										}
									}
								}
							}
						}
					}
					JOINT right_clavicle
					{
						OFFSET	43.2	22.4	-70.8
						CHANNELS 3  Xrotation Yrotation Zrotation
						JOINT right_shoulder
						{
							OFFSET	93.9	-5.79999	48.7
							CHANNELS 3  Xrotation Yrotation Zrotation
							JOINT right_elbow
							{
								OFFSET	291.4	-30.8	15.2
								CHANNELS 3  Xrotation Yrotation Zrotation
								JOINT right_lowarm_twist
								{
									OFFSET	110.7	-3.89999	13.6
									CHANNELS 3  Xrotation Yrotation Zrotation
									JOINT right_hand
									{
										OFFSET	110.7	-3.89999	13.6
										CHANNELS 3  Xrotation Yrotation Zrotation
										JOINT right_ee
										{
											OFFSET	80.8	-5.10001	12.1
											CHANNELS 3  Xrotation Yrotation Zrotation
											End Site
											{
												OFFSET	1	0	0
											}
										}
									}
								}
							}
						}
					}
				}
			}
		}
	}
	JOINT left_hip
	{
		OFFSET	-82.8	-127.5	0.300001
		CHANNELS 3  Xrotation Yrotation Zrotation
		JOINT left_knee
		{
			OFFSET	-28.2	-396.7	2.2
			CHANNELS 3  Xrotation Yrotation Zrotation
			JOINT left_ankle
			{
				OFFSET	-11.7	-411.3	35.4
				CHANNELS 3  Xrotation Yrotation Zrotation
				JOINT left_toes
				{
					OFFSET	0	-60	-88.6
					CHANNELS 3  Xrotation Yrotation Zrotation
					JOINT left_foot_ee
					{
						OFFSET	-22.5	-16.5	-42.2
						CHANNELS 3  Xrotation Yrotation Zrotation
						End Site
						{
							OFFSET	1	0	0
						}
					}
				}
			}
		}
	}
	JOINT right_hip
	{
		OFFSET	82.8	-127.5	0.300001
		CHANNELS 3  Xrotation Yrotation Zrotation
		JOINT right_knee
		{
			OFFSET	28.2	-396.7	2.2
			CHANNELS 3  Xrotation Yrotation Zrotation
			JOINT right_ankle
			{
				OFFSET	11.7	-411.3	35.4
				CHANNELS 3  Xrotation Yrotation Zrotation
				JOINT right_toes
				{
					OFFSET	0	-60	-88.6
					CHANNELS 3  Xrotation Yrotation Zrotation
					JOINT right_foot_ee
					{
						OFFSET	22.5	-16.5	-42.2
						CHANNELS 3  Xrotation Yrotation Zrotation
						End Site
						{
							OFFSET	1	0	0
						}
					}
				}
			}
		}
	}
}
MOTION
Frames: 16
Frame Time: 0.02
1372.05 701.618 -1475.22 1.40106265394 21.9811275879 -9.93288835366 -1.42512 0.379015 2.93061 -1.42036 0.191848 2.94877 -1.40628 -0.504159 2.91171 -1.4181 -0.0381905 2.95475 4.86715 1.93114 -3.04872 4.95388 5.97462 -3.38387 -0.0 0.0 -0.0 3.56191 -22.4109 5.10187 12.6696 7.42335 58.4484 3.74272 -61.6428 2.23351 50.5373 -1.00755 -6.1702 -0.245079 20.1206 6.65129 -0.0 0.0 -0.0 9.87668 -0.0868049 -19.3965 -5.03963 -36.7381 -57.9965 0.428245 11.9774 -0.044925 45.1214 0.642094 5.58133 -0.0708473 8.30161 4.00602 0.0 0.0 0.0 -11.2365 -6.63185 13.8033 -15.2034 0.321923 2.3041 41.0795 14.3474 -5.01846 -18.5767 0.0 0.0 -0.0 0.0 -0.0 27.7707 8.508 8.14057 -1.67795 -0.0654437 -0.249182 -12.752 -9.33794 -1.90752 2.97386 -0.0 -0.0 0.0 0.0 0.0 
1357.01137333 698.95 -1506.34780924 2.71711953697 22.9149604146 -10.3781622775 -1.72373 0.361465 2.76813 -1.71948 0.184659 2.7855 -1.70641 -0.487284 2.74879 -1.71695 -0.0472251 2.79121 5.04433 0.334173 -2.18304 5.07035 2.48239 -2.4801 -0.0 0.0 -0.0 3.55575 -23.4835 4.98222 10.6297 9.12374 59.8788 3.62118 -60.8462 2.12696 51.8627 -1.10536 -6.3089 -0.33318 21.5106 6.67244 -0.0 0.0 -0.0 9.61904 -1.83894 -18.7821 -5.80738 -34.8949 -58.6421 0.471019 13.134 -0.0542241 45.6475 0.675126 5.64 -0.418086 5.63221 5.21386 0.0 0.0 0.0 -13.9545 -3.35997 12.8533 -17.7891 0.315403 2.70074 39.6699 11.3883 -4.859 -16.3185 0.0 0.0 -0.0 0.0 -0.0 27.3532 8.66276 8.44238 -7.59862 -0.237469 -1.14113 -8.75746 -9.34629 -1.30341 6.95909 -0.0 -0.0 0.0 0.0 0.0 
1344.82571294 699.877 -1533.47656075 3.9433076232 23.8974513752 -11.0428001347 -2.1334 0.189854 2.61757 -2.12959 0.0229649 2.62434 -2.12479 -0.624469 2.54912 -2.13379 -0.214191 2.61569 5.43902 -0.84488 -0.696014 5.44045 -0.831564 -0.838545 -0.0 0.0 -0.0 4.34901 -21.031 6.9357 9.39128 5.1965 59.4623 3.25622 -58.1901 1.81236 50.0598 -0.973094 -6.11968 -0.60585 22.4969 5.46819 -0.0 0.0 -0.0 9.66737 -2.36047 -18.8507 -4.72526 -37.8343 -57.7001 0.481433 13.414 -0.0566152 43.56 0.547267 5.40548 -0.399364 6.50482 5.46195 0.0 0.0 0.0 -14.1631 -2.15982 12.9656 -21.3455 0.277222 3.24499 38.4028 16.0664 -4.80285 -15.0837 0.0 0.0 -0.0 0.0 -0.0 24.6791 10.4801 8.84535 -9.19864 -0.268054 -1.38474 -5.24363 -9.66389 -0.776004 8.85392 -0.0 -0.0 0.0 0.0 0.0 
1335.69061876 702.609 -1562.57847135 4.88196714303 24.3332248921 -11.5114347037 -2.21614 0.351287 2.49797 -2.21269 0.191675 2.51524 -2.20044 -0.437176 2.48439 -2.20905 -0.039457 2.52222 5.58005 -1.19024 -0.0377272 5.58483 -1.99745 -0.0964245 -0.0 0.0 -0.0 4.60034 -19.7522 7.5951 6.70866 4.99207 60.5847 3.04395 -56.4367 1.63368 50.4651 -1.00231 -6.16257 -0.417079 21.8169 6.29953 -0.0 0.0 -0.0 9.63432 -2.96075 -18.7488 -5.39495 -33.2086 -59.491 0.503571 14.007 -0.0618624 45.5765 0.670636 5.6321 -0.863344 3.80119 7.43932 0.0 0.0 0.0 -14.1331 0.729493 12.1116 -24.5532 0.213874 3.73308 36.8332 16.6317 -4.66231 -12.8562 0.0 0.0 -0.0 0.0 -0.0 22.6093 12.0254 8.27198 -12.0642 -0.305783 -1.82277 1.24253 -10.6386 0.181427 10.5888 -0.0 -0.0 0.0 0.0 0.0 
1324.91454747 705.944 -1588.39164903 5.05159457296 25.4717316203 -11.6052582728 -2.02958 0.423279 2.46894 -2.02623 0.265367 2.49085 -2.01098 -0.35146 2.48017 -2.01956 0.0445199 2.50454 6.2834 -2.28266 -0.195949 6.3001 -3.69729 -0.313522 -0.0 0.0 -0.0 4.48482 -20.4598 7.28182 3.96076 4.37857 62.185 2.57996 -51.9499 1.2571 49.356 -0.92309 -6.0447 -0.174954 18.0065 6.24513 -0.0 0.0 -0.0 10.1238 -0.913421 -19.8618 -1.8015 -34.3646 -57.9838 0.488729 13.6097 -0.0583198 46.4379 0.725762 5.72757 -0.873378 0.966878 6.26654 0.0 0.0 0.0 -12.7623 0.549733 11.5959 -27.7149 0.124785 4.21006 34.1353 19.3991 -4.43961 -11.9258 0.0 0.0 -0.0 0.0 -0.0 20.7705 11.5957 8.40229 -12.9515 -0.313018 -1.95872 3.44716 -10.8672 0.50055 13.2118 -0.0 -0.0 0.0 0.0 0.0 
1326.91706276 705.944 -1589.20504729 5.01034451579 24.4654595576 -11.5075412311 -2.02958 0.423279 2.46894 -2.02623 0.265367 2.49085 -2.01098 -0.35146 2.48017 -2.01956 0.0445199 2.50454 6.2834 -2.28266 -0.195949 6.3001 -3.69729 -0.313522 -0.0 0.0 -0.0 4.48482 -20.4598 7.28182 3.96076 4.37857 62.185 2.57996 -51.9499 1.2571 49.356 -0.92309 -6.0447 -0.174954 18.0065 6.24513 -0.0 0.0 -0.0 10.1238 -0.913421 -19.8618 -1.8015 -34.3646 -57.9838 0.488729 13.6097 -0.0583198 46.4379 0.725762 5.72757 -0.873378 0.966878 6.26654 0.0 0.0 0.0 -12.7623 0.549733 11.5959 -27.7149 0.124785 4.21006 34.1353 19.3991 -4.43961 -11.9258 0.0 0.0 -0.0 0.0 -0.0 20.7705 11.5957 8.40229 -12.9515 -0.313018 -1.95872 3.44716 -10.8672 0.50055 13.2118 -0.0 -0.0 0.0 0.0 0.0 
1297.83856082 712.575 -1636.02656368 5.87151867134 26.1160033681 -12.2204114784 -2.14769 0.499085 2.39568 -2.14456 0.345677 2.42256 -2.12619 -0.261707 2.43305 -2.13443 0.125715 2.44385 7.51608 -3.52643 -2.39441 7.53768 -3.76468 -2.91879 -0.0 0.0 -0.0 5.46744 -19.2364 9.51237 0.954572 5.37189 63.968 1.73643 -40.6978 0.644053 44.1388 -0.581856 -5.47096 0.0463573 9.43698 4.21264 -0.0 0.0 -0.0 9.80962 1.92384 -19.3393 1.36798 -35.6732 -59.0131 0.702872 19.1972 -0.118866 48.0182 0.830618 5.90056 -1.0354 -8.5165 3.1495 0.0 0.0 0.0 -5.25302 -3.07222 13.1088 -40.8488 -0.521651 6.11669 39.3321 26.5566 -5.15555 -12.4764 0.0 0.0 -0.0 0.0 -0.0 17.9035 10.6775 9.09678 -16.2419 -0.321455 -2.46343 8.34787 -16.1301 1.20532 16.5708 -0.0 -0.0 0.0 0.0 0.0 
1302.08676066 712.575 -1637.9198272 5.79898025404 24.6190996339 -12.0511112664 -2.14769 0.499085 2.39568 -2.14456 0.345677 2.42256 -2.12619 -0.261707 2.43305 -2.13443 0.125715 2.44385 7.51608 -3.52643 -2.39441 7.53768 -3.76468 -2.91879 -0.0 0.0 -0.0 5.46744 -19.2364 9.51237 0.954572 5.37189 63.968 1.73643 -40.6978 0.644053 44.1388 -0.581856 -5.47096 0.0463573 9.43698 4.21264 -0.0 0.0 -0.0 9.80962 1.92384 -19.3393 1.36798 -35.6732 -59.0131 0.702872 19.1972 -0.118866 48.0182 0.830618 5.90056 -1.0354 -8.5165 3.1495 0.0 0.0 0.0 -5.25302 -3.07222 13.1088 -40.8488 -0.521651 6.11669 39.3321 26.5566 -5.15555 -12.4764 0.0 0.0 -0.0 0.0 -0.0 17.9035 10.6775 9.09678 -16.2419 -0.321455 -2.46343 8.34787 -16.1301 1.20532 16.5708 -0.0 -0.0 0.0 0.0 0.0 
1297.65504684 718.424 -1656.89132268 5.67238410272 22.7796033118 -11.7844402243 -2.2023 0.605491 2.38486 -2.19925 0.452555 2.41852 -2.1762 -0.159176 2.45533 -2.18453 0.230475 2.44967 6.69034 -2.52059 -1.94499 6.70207 -2.52676 -2.35646 -0.0 0.0 -0.0 5.23979 -18.503 9.08209 -1.22127 6.37434 65.947 1.55731 -37.6456 0.530872 42.2786 -0.473058 -5.25931 0.195126 5.16142 3.4403 -0.0 0.0 -0.0 9.72677 3.15444 -19.2024 1.79933 -33.2848 -61.3674 0.774009 20.9778 -0.143301 49.0896 0.904411 6.01617 -1.10477 -11.7583 2.15237 0.0 0.0 0.0 -2.2753 -2.90121 12.8996 -43.4275 -0.699099 6.47132 37.7687 27.2827 -5.02358 -12.0272 0.0 0.0 -0.0 0.0 -0.0 16.632 9.98969 9.06192 -16.482 -0.320936 -2.50027 12.2965 -15.3376 1.74886 18.0249 -0.0 -0.0 0.0 0.0 0.0 
1303.97947041 721.885 -1676.6672125 6.44295449259 20.6266112165 -11.2381837989 -2.40592 0.578167 2.45859 -2.40266 0.420599 2.49037 -2.38006 -0.216896 2.51629 -2.38885 0.183097 2.51897 5.14818 -1.64289 -1.16145 5.15315 -1.79593 -1.40972 -0.0 0.0 -0.0 4.93728 -18.8191 8.40326 -2.52101 7.69102 66.1809 1.3461 -33.6945 0.407641 40.0037 -0.349455 -4.99589 0.201971 1.3645 1.91793 -0.0 0.0 -0.0 9.70277 8.77553 -19.1992 5.17763 -32.4886 -64.7301 0.789457 21.3591 -0.14888 52.6958 1.16849 6.39493 -1.1161 -16.0678 0.310138 0.0 0.0 0.0 0.365736 -4.0807 10.834 -45.9451 -0.887635 6.80963 36.8551 25.5588 -4.87261 -12.1493 0.0 0.0 -0.0 0.0 -0.0 14.5683 8.45642 7.62612 -16.0037 -0.321818 -2.42688 14.3261 -12.4966 2.01136 19.5116 -0.0 -0.0 0.0 0.0 0.0 
1299.20603873 727.24 -1699.54043141 6.40196482141 18.5909625289 -11.1692118282 -2.63941 0.612789 2.62853 -2.63567 0.444348 2.66216 -2.60985 -0.24775 2.68758 -2.61989 0.179653 2.69298 4.75128 -0.844454 -1.05783 4.75394 -0.528465 -1.24954 -0.0 0.0 -0.0 4.34459 -18.6325 7.14345 -4.78156 10.3809 68.2016 1.25857 -31.9405 0.360196 38.934 -0.294982 -4.8704 -0.0233971 -1.78411 -0.91049 -0.0 0.0 -0.0 9.34523 12.6324 -18.3387 7.30647 -30.6522 -66.5051 0.753903 20.4787 -0.136185 54.9808 1.34801 6.62612 -1.18101 -18.4894 -0.367158 0.0 0.0 0.0 3.47511 -3.27678 9.02434 -47.6782 -1.02603 7.03767 36.6874 23.383 -4.7924 -12.7344 0.0 0.0 -0.0 0.0 -0.0 12.7857 4.61204 7.81881 -14.8025 -0.321331 -2.24259 15.9127 -9.6246 2.2133 20.9489 -0.0 -0.0 0.0 0.0 0.0 
1308.76698137 727.24 -1702.42290094 6.31780752467 16.1797908662 -10.8876211612 -2.63941 0.612789 2.62853 -2.63567 0.444348 2.66216 -2.60985 -0.24775 2.68758 -2.61989 0.179653 2.69298 4.75128 -0.844454 -1.05783 4.75394 -0.528465 -1.24954 -0.0 0.0 -0.0 4.34459 -18.6325 7.14345 -4.78156 10.3809 68.2016 1.25857 -31.9405 0.360196 38.934 -0.294982 -4.8704 -0.0233971 -1.78411 -0.91049 -0.0 0.0 -0.0 9.34523 12.6324 -18.3387 7.30647 -30.6522 -66.5051 0.753903 20.4787 -0.136185 54.9808 1.34801 6.62612 -1.18101 -18.4894 -0.367158 0.0 0.0 0.0 3.47511 -3.27678 9.02434 -47.6782 -1.02603 7.03767 36.6874 23.383 -4.7924 -12.7344 0.0 0.0 -0.0 0.0 -0.0 12.7857 4.61204 7.81881 -14.8025 -0.321331 -2.24259 15.9127 -9.6246 2.2133 20.9489 -0.0 -0.0 0.0 0.0 0.0 
1286.42371061 732.161 -1731.83936406 6.61068902969 18.1948281492 -11.5445016117 -2.67 0.553514 2.87136 -2.66549 0.369759 2.90072 -2.64081 -0.382308 2.8991 -2.65253 0.0801461 2.92308 4.38797 0.231519 -0.637569 4.39071 0.95245 -0.709894 -0.0 0.0 -0.0 4.36684 -18.3025 7.22022 -6.21949 16.1991 69.5917 0.838018 -22.5446 0.167034 37.3673 -0.219459 -4.68485 -0.162145 -5.15024 -3.27697 -0.0 0.0 -0.0 9.25769 22.6451 -17.533 15.0284 -31.4107 -66.2399 0.733435 19.9672 -0.12911 58.9732 1.68337 7.0124 -1.37088 -24.9854 -2.14407 0.0 0.0 0.0 6.43052 0.133797 8.30422 -52.1971 -1.41885 7.61186 34.8287 16.5578 -4.46266 -12.2112 0.0 0.0 -0.0 0.0 -0.0 9.95675 -1.45298 8.58746 -12.4243 -0.308973 -1.87793 16.8436 -2.56193 2.3403 21.9676 -0.0 -0.0 0.0 0.0 0.0 
1295.25285119 732.161 -1734.61845292 6.54109343175 16.2472361721 -11.3094622132 -2.67 0.553514 2.87136 -2.66549 0.369759 2.90072 -2.64081 -0.382308 2.8991 -2.65253 0.0801461 2.92308 4.38797 0.231519 -0.637569 4.39071 0.95245 -0.709894 -0.0 0.0 -0.0 4.36684 -18.3025 7.22022 -6.21949 16.1991 69.5917 0.838018 -22.5446 0.167034 37.3673 -0.219459 -4.68485 -0.162145 -5.15024 -3.27697 -0.0 0.0 -0.0 9.25769 22.6451 -17.533 15.0284 -31.4107 -66.2399 0.733435 19.9672 -0.12911 58.9732 1.68337 7.0124 -1.37088 -24.9854 -2.14407 0.0 0.0 0.0 6.43052 0.133797 8.30422 -52.1971 -1.41885 7.61186 34.8287 16.5578 -4.46266 -12.2112 0.0 0.0 -0.0 0.0 -0.0 9.95675 -1.45298 8.58746 -12.4243 -0.308973 -1.87793 16.8436 -2.56193 2.3403 21.9676 -0.0 -0.0 0.0 0.0 0.0 
1303.91793175 732.161 -1737.02790805 6.48198686165 14.354607581 -11.0855099646 -2.67 0.553514 2.87136 -2.66549 0.369759 2.90072 -2.64081 -0.382308 2.8991 -2.65253 0.0801461 2.92308 4.38797 0.231519 -0.637569 4.39071 0.95245 -0.709894 -0.0 0.0 -0.0 4.36684 -18.3025 7.22022 -6.21949 16.1991 69.5917 0.838018 -22.5446 0.167034 37.3673 -0.219459 -4.68485 -0.162145 -5.15024 -3.27697 -0.0 0.0 -0.0 9.25769 22.6451 -17.533 15.0284 -31.4107 -66.2399 0.733435 19.9672 -0.12911 58.9732 1.68337 7.0124 -1.37088 -24.9854 -2.14407 0.0 0.0 0.0 6.43052 0.133797 8.30422 -52.1971 -1.41885 7.61186 34.8287 16.5578 -4.46266 -12.2112 0.0 0.0 -0.0 0.0 -0.0 9.95675 -1.45298 8.58746 -12.4243 -0.308973 -1.87793 16.8436 -2.56193 2.3403 21.9676 -0.0 -0.0 0.0 0.0 0.0 
1282.31430761 733.65 -1754.00602083 5.83199752352 15.7184034587 -11.4677586211 -2.47999 0.572177 2.9884 -2.4751 0.380947 3.01871 -2.44885 -0.391487 3.01737 -2.46154 0.0897343 3.04131 5.03752 1.10736 -0.331939 5.04425 2.18828 -0.324308 -0.0 0.0 -0.0 4.37779 -18.407 7.23462 -8.67943 16.6061 71.1502 0.648003 -17.7968 0.101457 36.901 -0.197963 -4.62924 -0.122717 -5.98294 -3.36637 -0.0 0.0 -0.0 9.47297 27.6732 -17.5034 18.477 -31.187 -65.4645 0.734212 19.9867 -0.129375 60.6342 1.83072 7.16613 -1.37423 -27.062 -3.04572 0.0 0.0 0.0 8.09123 2.83831 8.56497 -53.3857 -1.52965 7.75767 35.1771 12.6902 -4.44983 -11.6265 0.0 0.0 -0.0 0.0 -0.0 9.39698 -3.18055 9.48073 -12.4389 -0.309095 -1.88017 17.334 -0.214127 2.41353 21.8779 -0.0 -0.0 0.0 0.0 0.0 
